<svg width="140" height="46" viewBox="0 0 140 46" fill="none" xmlns="http://www.w3.org/2000/svg">
<g clip-path="url(#clip0_1_1634)">
<path d="M44.8643 22.7284C44.8643 34.7225 35.1299 44.4568 23.1359 44.4568C11.1418 44.4568 1.40747 34.7225 1.40747 22.7284C1.40747 10.7343 11.1418 1 23.1359 1C35.1299 1 44.8643 10.7343 44.8643 22.7284Z" fill="url(#paint0_radial_1_1634)"/>
<rect x="21.0398" y="12.5972" width="5" height="23.2187" rx="2.5" transform="rotate(-18.6278 21.0398 12.5972)" fill="white"/>
<rect x="12" y="15.6443" width="5" height="14.8339" rx="2.5" transform="rotate(-18.6278 12 15.6443)" fill="white"/>
<path d="M70.7731 20.6562H67.0401C66.9719 20.1733 66.8327 19.7443 66.6225 19.3693C66.4123 18.9886 66.1424 18.6648 65.8129 18.3977C65.4833 18.1307 65.1026 17.9261 64.6708 17.7841C64.2447 17.642 63.7816 17.571 63.2816 17.571C62.3782 17.571 61.5913 17.7955 60.9208 18.2443C60.2504 18.6875 59.7305 19.3352 59.3612 20.1875C58.9918 21.0341 58.8072 22.0625 58.8072 23.2727C58.8072 24.517 58.9918 25.5625 59.3612 26.4091C59.7362 27.2557 60.2589 27.8949 60.9293 28.3267C61.5998 28.7585 62.3754 28.9744 63.256 28.9744C63.7504 28.9744 64.2077 28.9091 64.6282 28.7784C65.0543 28.6477 65.4322 28.4574 65.7617 28.2074C66.0913 27.9517 66.364 27.642 66.5799 27.2784C66.8015 26.9148 66.9549 26.5 67.0401 26.0341L70.7731 26.0511C70.6765 26.8523 70.435 27.625 70.0487 28.3693C69.668 29.108 69.1538 29.7699 68.506 30.3551C67.864 30.9347 67.0969 31.3949 66.2049 31.7358C65.3185 32.071 64.3157 32.2386 63.1964 32.2386C61.6396 32.2386 60.2475 31.8864 59.0202 31.1818C57.7987 30.4773 56.8327 29.4574 56.1225 28.1222C55.418 26.7869 55.0657 25.1705 55.0657 23.2727C55.0657 21.3693 55.4237 19.75 56.1396 18.4148C56.8555 17.0795 57.8271 16.0625 59.0543 15.3636C60.2816 14.6591 61.6623 14.3068 63.1964 14.3068C64.2077 14.3068 65.1452 14.4489 66.0089 14.733C66.8782 15.017 67.6481 15.4318 68.3185 15.9773C68.989 16.517 69.5344 17.179 69.9549 17.9631C70.381 18.7472 70.6538 19.6449 70.7731 20.6562ZM73.3512 32V18.9091H76.9819V32H73.3512ZM75.1751 17.2216C74.6353 17.2216 74.1722 17.0426 73.7859 16.6847C73.4052 16.321 73.2148 15.8864 73.2148 15.3807C73.2148 14.8807 73.4052 14.4517 73.7859 14.0938C74.1722 13.7301 74.6353 13.5483 75.1751 13.5483C75.7148 13.5483 76.1751 13.7301 76.5558 14.0938C76.9421 14.4517 77.1353 14.8807 77.1353 15.3807C77.1353 15.8864 76.9421 16.321 76.5558 16.6847C76.1751 17.0426 75.7148 17.2216 75.1751 17.2216ZM85.805 32.2557C84.4641 32.2557 83.3107 31.9716 82.3448 31.4034C81.3846 30.8295 80.646 30.0341 80.1289 29.017C79.6175 28 79.3619 26.8295 79.3619 25.5057C79.3619 24.1648 79.6204 22.9886 80.1374 21.9773C80.6602 20.9602 81.4016 20.1676 82.3619 19.5994C83.3221 19.0256 84.4641 18.7386 85.788 18.7386C86.93 18.7386 87.93 18.946 88.788 19.3608C89.646 19.7756 90.3249 20.358 90.8249 21.108C91.3249 21.858 91.6005 22.7386 91.6516 23.75H88.2255C88.1289 23.0966 87.8732 22.571 87.4585 22.1733C87.0494 21.7699 86.5124 21.5682 85.8477 21.5682C85.2852 21.5682 84.7937 21.7216 84.3732 22.0284C83.9585 22.3295 83.6346 22.7699 83.4016 23.3494C83.1687 23.929 83.0522 24.6307 83.0522 25.4545C83.0522 26.2898 83.1658 27 83.3931 27.5852C83.6261 28.1705 83.9528 28.6165 84.3732 28.9233C84.7937 29.2301 85.2852 29.3835 85.8477 29.3835C86.2624 29.3835 86.6346 29.2983 86.9641 29.1278C87.2994 28.9574 87.5749 28.7102 87.7908 28.3864C88.0124 28.0568 88.1573 27.6619 88.2255 27.2017H91.6516C91.5948 28.2017 91.3221 29.0824 90.8335 29.8438C90.3505 30.5994 89.6829 31.1903 88.8306 31.6165C87.9783 32.0426 86.9698 32.2557 85.805 32.2557ZM93.9762 32V18.9091H97.4961V21.1932H97.6325C97.8711 20.3807 98.2717 19.767 98.8342 19.3523C99.3967 18.9318 100.044 18.7216 100.777 18.7216C100.959 18.7216 101.155 18.733 101.365 18.7557C101.576 18.7784 101.76 18.8097 101.919 18.8494V22.071C101.749 22.0199 101.513 21.9744 101.212 21.9347C100.911 21.8949 100.635 21.875 100.385 21.875C99.8512 21.875 99.3739 21.9915 98.9535 22.2244C98.5387 22.4517 98.2092 22.7699 97.9648 23.179C97.7262 23.5881 97.6069 24.0597 97.6069 24.5938V32H93.9762ZM106.436 36.9091C105.976 36.9091 105.544 36.8722 105.141 36.7983C104.743 36.7301 104.414 36.642 104.152 36.5341L104.971 33.8239C105.397 33.9545 105.78 34.0256 106.121 34.0369C106.468 34.0483 106.766 33.9688 107.016 33.7983C107.272 33.6278 107.479 33.3381 107.638 32.929L107.851 32.375L103.155 18.9091H106.973L109.684 28.5227H109.82L112.556 18.9091H116.4L111.311 33.4148C111.067 34.1193 110.735 34.733 110.314 35.2557C109.9 35.7841 109.374 36.1903 108.738 36.4744C108.101 36.7642 107.334 36.9091 106.436 36.9091ZM118.257 36.9091V18.9091H121.837V21.108H121.999C122.158 20.7557 122.388 20.3977 122.689 20.0341C122.996 19.6648 123.394 19.358 123.882 19.1136C124.377 18.8636 124.99 18.7386 125.723 18.7386C126.678 18.7386 127.559 18.9886 128.365 19.4886C129.172 19.983 129.817 20.7301 130.3 21.7301C130.783 22.7244 131.025 23.9716 131.025 25.4716C131.025 26.9318 130.789 28.1648 130.317 29.1705C129.851 30.1705 129.215 30.929 128.408 31.446C127.607 31.9574 126.709 32.2131 125.715 32.2131C125.01 32.2131 124.411 32.0966 123.917 31.8636C123.428 31.6307 123.027 31.3381 122.715 30.9858C122.402 30.6278 122.164 30.267 121.999 29.9034H121.888V36.9091H118.257ZM121.811 25.4545C121.811 26.233 121.919 26.9119 122.135 27.4915C122.351 28.071 122.664 28.5227 123.073 28.8466C123.482 29.1648 123.979 29.3239 124.564 29.3239C125.155 29.3239 125.655 29.1619 126.064 28.8381C126.473 28.5085 126.783 28.054 126.993 27.4744C127.209 26.8892 127.317 26.2159 127.317 25.4545C127.317 24.6989 127.212 24.0341 127.002 23.4602C126.792 22.8864 126.482 22.4375 126.073 22.1136C125.664 21.7898 125.161 21.6278 124.564 21.6278C123.973 21.6278 123.473 21.7841 123.064 22.0966C122.661 22.4091 122.351 22.8523 122.135 23.4261C121.919 24 121.811 24.6761 121.811 25.4545ZM135.567 32.2216C135.005 32.2216 134.522 32.0227 134.118 31.625C133.721 31.2216 133.522 30.7386 133.522 30.1761C133.522 29.6193 133.721 29.142 134.118 28.7443C134.522 28.3466 135.005 28.1477 135.567 28.1477C136.113 28.1477 136.59 28.3466 136.999 28.7443C137.408 29.142 137.613 29.6193 137.613 30.1761C137.613 30.5511 137.516 30.8949 137.323 31.2074C137.135 31.5142 136.888 31.7614 136.581 31.9489C136.275 32.1307 135.936 32.2216 135.567 32.2216Z" fill="#F7FAFA"/>
</g>
<defs>
<radialGradient id="paint0_radial_1_1634" cx="0" cy="0" r="1" gradientUnits="userSpaceOnUse" gradientTransform="translate(6.3876 0.982614) rotate(48.4946) scale(58.0746)">
<stop stop-color="#2F82FF"/>
<stop offset="1" stop-color="#02F0FF"/>
</radialGradient>
<clipPath id="clip0_1_1634">
<rect width="139" height="46" fill="white" transform="translate(0.5)"/>
</clipPath>
</defs>
</svg>
