<svg width="136" height="136" viewBox="0 0 136 136" fill="none" xmlns="http://www.w3.org/2000/svg">
<path d="M67.8 135.2C30.6 135.2 0.299988 104.9 0.299988 67.7C0.299988 30.4 30.6 0.200012 67.8 0.200012C105.1 0.200012 135.3 30.4 135.3 67.7C135.3 104.9 105.1 135.2 67.8 135.2Z" fill="url(#paint0_linear_203_2313)"/>
<path d="M46.3 66.9L90.9 46L73.1 80.2C62.5 91.2666 56.8333 96.8 56.1 96.8C55.3667 96.8 54.6667 96.1334 54 94.8L46 72.6L46.3 66.9Z" fill="#C8DAEA"/>
<path d="M69.3 85.7C66.1 88.3 62.8333 91.2666 59.5 94.6C56.1667 97.9333 54.7 97.9333 55.1 94.6L56.6 78.3L69.3 85.7Z" fill="#A9C6D8"/>
<path d="M46.2 73.4L29.7 68C28.3667 67.4666 27.9333 66.6 28.4 65.4C28.5 65 28.8 64.6999 29.5 64.1999C31.9667 62.4666 54.5 53.9333 97.1 38.6C98.3 38.2 99.2667 38.1333 100 38.4C100.5 38.6 100.8 38.8 101 39.6C101.1 39.9 101.2 40.5 101.2 41.1C101.2 41.5 101.1 41.9 101.1 42.5C100.833 46.7 96.8 64.4 89 95.6C88.6 97.4666 87.5666 98.4333 85.9 98.5C84.9 98.5 83.8 98.2999 82.5 97.1999C77.6 92.9999 60.7 81.6 56.9 79.1C56.7 78.9 56.7 78.8 56.6 78.6C56.6 78.4 56.7 78.2 56.9 78C76.5667 60.5333 86.6333 50.8666 87.1 49C87.2 48.8 87 48.7 86.7 48.8C84.7 49.5 50.8 71 47 73.3C46.8667 73.4334 46.6 73.4667 46.2 73.4V73.4Z" fill="white"/>
<defs>
<linearGradient id="paint0_linear_203_2313" x1="-1.70001" y1="135.2" x2="-1.70001" y2="0.200012" gradientUnits="userSpaceOnUse">
<stop stop-color="#1D93D2"/>
<stop offset="1" stop-color="#38B0E3"/>
</linearGradient>
</defs>
</svg>
